{"title":"Becket(1964)MPEG-4[DaScubaDude]","uid":14579111,"size":1487326079,"categoryP":"video","categoryS":"movies","magnet":"?xt=urn:btih:d818e8b547c31ceed801895ace02b76d51a25503&amp;dn=Becket%281964%29MPEG-4%5BDaScubaDude%5D&amp;tr=udp%3A%2F%2Ftracker.leechers-paradise.org%3A6969&amp;tr=udp%3A%2F%2Fzer0day.ch%3A1337&amp;tr=udp%3A%2F%2Fopen.demonii.com%3A1337&amp;tr=udp%3A%2F%2Ftracker.coppersurfer.tk%3A6969&amp;tr=udp%3A%2F%2Fexodus.desync.com%3A6969","seeders":0,"leechers":1,"uploader":"dascuba","files":1,"time":1462851764,"description":"Becket (1964)\r\nPG-13 | 2h 28min | Biography, Drama, History | 11 March 1964 (USA)\r\nAn English king comes to terms with his affection for his close friend and confidant, who finds his true honor by observing God's divine will rather than the king's.\r\nDirector: Peter Glenville\r\nWriters: Jean Anouilh (play), Lucienne Hill (play) | \r\nStars: Richard Burton, Peter O'Toole, John Gielgud \r\n\r\nGeneral\r\nComplete name                            : BecketBECKET_Title7.mp4\r\nFormat                                   : MPEG-4\r\nFormat profile                           : Base Media\r\nCodec ID                                 : isom (isom/iso2/avc1/mp41)\r\nFile size                                : 1.39 GiB\r\nDuration                                 : 2h 28mn\r\nOverall bit rate                         : 1 338 Kbps\r\nMovie name                               : BECKET\r\nGenre                                    : Historical_Film\r\nWriting application                      : Lavf54.6.100\r\n\r\nVideo\r\nID                                       : 1\r\nFormat                                   : AVC\r\nFormat/Info                              : Advanced Video Codec\r\nFormat profile                           :   \r\nFormat settings, CABAC                   : No\r\nFormat settings, ReFrames                : 6 frames\r\nCodec ID                                 : avc1\r\nCodec ID/Info                            : Advanced Video Coding\r\nDuration                                 : 2h 28mn\r\nBit rate                                 : 1 203 Kbps\r\nWidth                                    : 720 pixels\r\nHeight                                   : 404 pixels\r\nDisplay aspect ratio                     : 16:9\r\nFrame rate mode                          : Constant\r\nFrame rate                               : 29.970 (30000/1001) fps\r\nColor space                              : YUV\r\nChroma subsampling                       : 4:2:0\r\nBit depth                                : 8 bits\r\nScan type                                : Progressive\r\nBits/(Pixel*Frame)                       : 0.138\r\nStream size                              : 1.25 GiB (90%)\r\n\r\nAudio\r\nID                                       : 2\r\nFormat                                   : AAC\r\nFormat/Info                              : Advanced Audio Codec\r\nFormat profile                           : LC\r\nCodec ID                                 : 40\r\nDuration                                 : 2h 28mn\r\nBit rate mode                            : Constant\r\nBit rate                                 : 128 Kbps\r\nChannel(s)                               : 2 channels\r\nChannel positions                        : Front: L R\r\nSampling rate                            : 44.1 KHz\r\nFrame rate                               : 43.066 fps (1024 spf)\r\nCompression mode                         : Lossy\r\nStream size                              : 136 MiB (10%)\r\nDefault                                  : Yes\r\nAlternate group                          : 1","torrent":{"xt":"urn:btih:d818e8b547c31ceed801895ace02b76d51a25503","amp;dn":"Becket%281964%29MPEG-4%5BDaScubaDude%5D","amp;tr":["udp%3A%2F%2Ftracker.leechers-paradise.org%3A6969","udp%3A%2F%2Fzer0day.ch%3A1337","udp%3A%2F%2Fopen.demonii.com%3A1337","udp%3A%2F%2Ftracker.coppersurfer.tk%3A6969","udp%3A%2F%2Fexodus.desync.com%3A6969"],"infoHash":"d818e8b547c31ceed801895ace02b76d51a25503","infoHashBuffer":{"type":"Buffer","data":[216,24,232,181,71,195,28,238,216,1,137,90,206,2,183,109,81,162,85,3]},"announce":[],"urlList":[]}}